<svg width="256" height="256" viewBox="0 0 256 256" fill="none" xmlns="http://www.w3.org/2000/svg">
<g clip-path="url(#clip0_6_707)">
<rect width="256" height="256" fill="url(#paint0_linear_6_707)"/>
<rect width="256" height="256" fill="black"/>
<rect width="256" height="256" fill="url(#paint1_linear_6_707)"/>
<path d="M45.0797 219.2C44.0797 219.88 42.8197 220.41 41.2997 220.79C39.7997 221.17 38.1997 221.36 36.4997 221.36C34.3797 221.36 32.5797 221.1 31.0997 220.58C29.6197 220.04 28.4997 219.3 27.7397 218.36C26.9797 217.4 26.5997 216.31 26.5997 215.09C26.5997 213.97 26.9097 212.98 27.5297 212.12C28.1497 211.26 28.9997 210.62 30.0797 210.2C29.2597 209.76 28.6197 209.16 28.1597 208.4C27.7197 207.64 27.4997 206.79 27.4997 205.85C27.4997 204.71 27.8497 203.67 28.5497 202.73C29.2497 201.79 30.3097 201.04 31.7297 200.48C33.1497 199.92 34.8897 199.64 36.9497 199.64C38.3097 199.64 39.6397 199.78 40.9397 200.06C42.2397 200.32 43.3697 200.68 44.3297 201.14L42.9797 204.86C41.1397 204 39.1897 203.57 37.1297 203.57C35.5697 203.57 34.3897 203.81 33.5897 204.29C32.8097 204.75 32.4197 205.38 32.4197 206.18C32.4197 206.92 32.6797 207.49 33.1997 207.89C33.7397 208.27 34.5497 208.46 35.6297 208.46H41.3597V212.3H35.3297C34.1097 212.3 33.1697 212.51 32.5097 212.93C31.8497 213.35 31.5197 213.96 31.5197 214.76C31.5197 215.6 31.9397 216.26 32.7797 216.74C33.6397 217.2 34.9497 217.43 36.7097 217.43C37.9497 217.43 39.1897 217.27 40.4297 216.95C41.6697 216.61 42.7197 216.14 43.5797 215.54L45.0797 219.2ZM57.4095 204.62C59.4095 204.62 61.0195 205.22 62.2395 206.42C63.4795 207.62 64.0995 209.4 64.0995 211.76V221H59.4195V212.48C59.4195 211.2 59.1395 210.25 58.5795 209.63C58.0195 208.99 57.2095 208.67 56.1495 208.67C54.9695 208.67 54.0295 209.04 53.3295 209.78C52.6295 210.5 52.2795 211.58 52.2795 213.02V221H47.5995V204.86H52.0695V206.75C52.6895 206.07 53.4595 205.55 54.3795 205.19C55.2995 204.81 56.3095 204.62 57.4095 204.62ZM84.0687 204.86L77.2587 221H72.4287L65.6487 204.86H70.4787L74.9487 215.84L79.5687 204.86H84.0687ZM85.9784 204.86H90.6584V221H85.9784V204.86ZM88.3184 202.61C87.4584 202.61 86.7584 202.36 86.2184 201.86C85.6784 201.36 85.4084 200.74 85.4084 200C85.4084 199.26 85.6784 198.64 86.2184 198.14C86.7584 197.64 87.4584 197.39 88.3184 197.39C89.1784 197.39 89.8784 197.63 90.4184 198.11C90.9584 198.59 91.2284 199.19 91.2284 199.91C91.2284 200.69 90.9584 201.34 90.4184 201.86C89.8784 202.36 89.1784 202.61 88.3184 202.61ZM99.4718 206.99C100.032 206.21 100.782 205.62 101.722 205.22C102.682 204.82 103.782 204.62 105.022 204.62V208.94C104.502 208.9 104.152 208.88 103.972 208.88C102.632 208.88 101.582 209.26 100.822 210.02C100.062 210.76 99.6818 211.88 99.6818 213.38V221H95.0018V204.86H99.4718V206.99ZM115.338 221.24C113.638 221.24 112.108 220.89 110.748 220.19C109.408 219.47 108.358 218.48 107.598 217.22C106.838 215.96 106.458 214.53 106.458 212.93C106.458 211.33 106.838 209.9 107.598 208.64C108.358 207.38 109.408 206.4 110.748 205.7C112.108 204.98 113.638 204.62 115.338 204.62C117.038 204.62 118.558 204.98 119.898 205.7C121.238 206.4 122.288 207.38 123.048 208.64C123.808 209.9 124.188 211.33 124.188 212.93C124.188 214.53 123.808 215.96 123.048 217.22C122.288 218.48 121.238 219.47 119.898 220.19C118.558 220.89 117.038 221.24 115.338 221.24ZM115.338 217.4C116.538 217.4 117.518 217 118.278 216.2C119.058 215.38 119.448 214.29 119.448 212.93C119.448 211.57 119.058 210.49 118.278 209.69C117.518 208.87 116.538 208.46 115.338 208.46C114.138 208.46 113.148 208.87 112.368 209.69C111.588 210.49 111.198 211.57 111.198 212.93C111.198 214.29 111.588 215.38 112.368 216.2C113.148 217 114.138 217.4 115.338 217.4ZM137.126 204.62C139.126 204.62 140.736 205.22 141.956 206.42C143.196 207.62 143.816 209.4 143.816 211.76V221H139.136V212.48C139.136 211.2 138.856 210.25 138.296 209.63C137.736 208.99 136.926 208.67 135.866 208.67C134.686 208.67 133.746 209.04 133.046 209.78C132.346 210.5 131.996 211.58 131.996 213.02V221H127.316V204.86H131.786V206.75C132.406 206.07 133.176 205.55 134.096 205.19C135.016 204.81 136.026 204.62 137.126 204.62ZM168.728 204.62C170.748 204.62 172.348 205.22 173.528 206.42C174.728 207.6 175.328 209.38 175.328 211.76V221H170.648V212.48C170.648 211.2 170.378 210.25 169.838 209.63C169.318 208.99 168.568 208.67 167.588 208.67C166.488 208.67 165.618 209.03 164.978 209.75C164.338 210.45 164.018 211.5 164.018 212.9V221H159.338V212.48C159.338 209.94 158.318 208.67 156.278 208.67C155.198 208.67 154.338 209.03 153.698 209.75C153.058 210.45 152.738 211.5 152.738 212.9V221H148.058V204.86H152.528V206.72C153.128 206.04 153.858 205.52 154.718 205.16C155.598 204.8 156.558 204.62 157.598 204.62C158.738 204.62 159.768 204.85 160.688 205.31C161.608 205.75 162.348 206.4 162.908 207.26C163.568 206.42 164.398 205.77 165.398 205.31C166.418 204.85 167.528 204.62 168.728 204.62ZM187.829 217.49C188.669 217.49 189.409 217.37 190.049 217.13C190.709 216.87 191.319 216.47 191.879 215.93L194.369 218.63C192.849 220.37 190.629 221.24 187.709 221.24C185.889 221.24 184.279 220.89 182.879 220.19C181.479 219.47 180.399 218.48 179.639 217.22C178.879 215.96 178.499 214.53 178.499 212.93C178.499 211.35 178.869 209.93 179.609 208.67C180.369 207.39 181.399 206.4 182.699 205.7C184.019 204.98 185.499 204.62 187.139 204.62C188.679 204.62 190.079 204.95 191.339 205.61C192.599 206.25 193.599 207.19 194.339 208.43C195.099 209.65 195.479 211.1 195.479 212.78L183.539 215.09C183.879 215.89 184.409 216.49 185.129 216.89C185.869 217.29 186.769 217.49 187.829 217.49ZM187.139 208.16C185.959 208.16 184.999 208.54 184.259 209.3C183.519 210.06 183.129 211.11 183.089 212.45L190.949 210.92C190.729 210.08 190.279 209.41 189.599 208.91C188.919 208.41 188.099 208.16 187.139 208.16ZM208.435 204.62C210.435 204.62 212.045 205.22 213.265 206.42C214.505 207.62 215.125 209.4 215.125 211.76V221H210.445V212.48C210.445 211.2 210.165 210.25 209.605 209.63C209.045 208.99 208.235 208.67 207.175 208.67C205.995 208.67 205.055 209.04 204.355 209.78C203.655 210.5 203.305 211.58 203.305 213.02V221H198.625V204.86H203.095V206.75C203.715 206.07 204.485 205.55 205.405 205.19C206.325 204.81 207.335 204.62 208.435 204.62ZM229.087 220.22C228.627 220.56 228.057 220.82 227.377 221C226.717 221.16 226.027 221.24 225.307 221.24C223.367 221.24 221.877 220.75 220.837 219.77C219.797 218.79 219.277 217.35 219.277 215.45V201.29H223.957V205.22H227.947V208.82H223.957V215.39C223.957 216.07 224.127 216.6 224.467 216.98C224.807 217.34 225.297 217.52 225.937 217.52C226.657 217.52 227.297 217.32 227.857 216.92L229.087 220.22Z" fill="url(#paint2_linear_6_707)"/>
<path d="M205.334 20L128 154.222L70.0319 53.5556H147.331L156.997 36.7778H41L118.317 171H137.666L215 36.7778L205.334 20Z" fill="#D4D4D4"/>
<path d="M186.003 20L128 120.667L89.3544 53.5904H70.0317L128 154.222L205.334 20H186.003Z" fill="#EC008C"/>
<path d="M41 36.7778H156.997L118.326 103.854L128 120.667L186.003 20H50.6657L41 36.7778Z" fill="#393092"/>
</g>
<defs>
<linearGradient id="paint0_linear_6_707" x1="-3.5" y1="-2.86195e-06" x2="256" y2="256" gradientUnits="userSpaceOnUse">
<stop stop-color="white"/>
<stop offset="1" stop-color="#999999"/>
</linearGradient>
<linearGradient id="paint1_linear_6_707" x1="0" y1="0" x2="256" y2="256" gradientUnits="userSpaceOnUse">
<stop stop-color="white" stop-opacity="0.15"/>
<stop offset="1" stop-opacity="0"/>
</linearGradient>
<linearGradient id="paint2_linear_6_707" x1="91" y1="88.5" x2="212" y2="225.5" gradientUnits="userSpaceOnUse">
<stop stop-color="white"/>
<stop offset="1" stop-color="#EAEAEA"/>
</linearGradient>
<clipPath id="clip0_6_707">
<rect width="256" height="256" fill="white"/>
</clipPath>
</defs>
</svg>
