<svg width="256" height="256" viewBox="0 0 256 256" fill="none" xmlns="http://www.w3.org/2000/svg">
<g clip-path="url(#clip0_2_132)">
<rect width="256" height="256" fill="url(#paint0_linear_2_132)"/>
<rect width="256" height="256" fill="#00AEFF"/>
<rect width="256" height="256" fill="url(#paint1_linear_2_132)"/>
<path fill-rule="evenodd" clip-rule="evenodd" d="M171.894 65.9147L156.11 56.5825L158.489 55.0062L173.669 64.0008C173.025 64.6113 172.431 65.2723 171.894 65.9773" fill="white" fill-opacity="0.5"/>
<path fill-rule="evenodd" clip-rule="evenodd" d="M175.657 174.987L169.175 170.446C164.921 167.432 162.693 162.328 162.693 156.686V93.5363C162.693 84.7795 164.556 78.7873 167.514 74.634C165.76 79.4801 164.941 84.6109 165.097 89.7583L165.286 154.384C165.286 161.377 167.325 165.918 172.133 169.321L178.061 173.486L175.657 174.987Z" fill="white" fill-opacity="0.5"/>
<path fill-rule="evenodd" clip-rule="evenodd" d="M123.184 174.412C122.858 174.621 122.522 174.813 122.177 174.988H120.553V69.4801C120.553 64.3761 120.15 64.3761 116.89 62.0993L112.208 58.6967L115.267 57.183C117.709 59.072 121.371 61.724 121.371 61.9117C122.794 63.2377 123.184 63.9883 123.184 67.0157V174.412Z" fill="white" fill-opacity="0.5"/>
<path fill-rule="evenodd" clip-rule="evenodd" d="M45.5878 44.0978C44.7755 45.9352 44.4103 47.9371 44.5218 49.941C44.6334 51.945 45.2185 53.8946 46.2297 55.6318C48.3158 58.6685 51.5139 60.7742 55.1409 61.4989C43.1586 62.4121 37.8848 53.8179 45.5878 44.1103" fill="white" fill-opacity="0.5"/>
<path fill-rule="evenodd" clip-rule="evenodd" d="M73.8068 135.719C74.5913 132.442 74.9592 129.08 74.9019 125.712V71.1064C74.9019 64.5388 74.5872 63.7882 72.6992 61.7241H73.0265C75.6822 61.1611 77.0919 61.7241 77.0919 67.3535V122.196C77.0919 128.589 76.1605 132.717 73.8068 135.732" fill="white" fill-opacity="0.5"/>
<path fill-rule="evenodd" clip-rule="evenodd" d="M78.5269 175C76.9536 169.834 72.2336 165.468 63.9265 164.279C65.106 164.113 66.2976 164.046 67.4885 164.079C77.7339 164.267 80.6918 170.622 81.3337 172.611L81.5351 173.199L78.5269 175Z" fill="white" fill-opacity="0.5"/>
<path fill-rule="evenodd" clip-rule="evenodd" d="M84.606 172.235C82.6803 166.881 77.0541 161.352 67.1233 160.977C57.696 160.776 44.2536 164.417 33.1397 172.811L31 170.134C39.068 161.377 57.8974 147.241 77.6834 147.041C88.0547 147.041 95.3046 150.481 100.541 156.01L109.162 151.244L111.68 156.248L84.606 172.235Z" fill="url(#paint2_linear_2_132)"/>
<path fill-rule="evenodd" clip-rule="evenodd" d="M203.121 55.2439C195.569 59.6349 193.052 65.552 193.052 74.7217V147.816C193.052 152.407 193.643 154.496 196.135 155.835L198.653 157.174L205.563 153.158L207.866 157.749L183.851 172.06L175.594 166.518C171.931 164.016 170.396 160.989 170.396 155.072V89.7959C170.396 77.5864 174.247 71.0313 179.622 67.0907L182.706 64.7889L160.05 51.6161L149.905 57.7459V152.82C149.905 160.826 148.747 161.977 141.636 165.593C141.636 165.593 136.072 168.27 128.407 172.285H126.859V66.8905C126.859 61.749 126.28 60.6357 123.398 58.3088L115.342 51.8163L105.538 57.3456V111.938C105.538 121.471 104.002 128.339 96.3117 133.105L77.1172 145.139L75.1789 141.899C81.1449 137.308 82.4791 130.815 82.4791 123.134V67.466C82.4791 59.2596 81.3463 56.0195 72.6867 57.5457C69.4268 58.1087 64.43 58.8718 61.3589 59.2596C48.6717 60.9734 43.2972 52.0039 51.9442 40.7451C51.9442 40.7451 54.0587 37.8804 59.4331 31L63.6622 33.8772L60.5785 38.2682C56.5508 43.9977 59.8233 47.025 66.3557 44.7482C69.4268 43.6099 75.3803 41.3206 79.6093 39.5942C97.8472 32.5387 104.581 44.1853 105.538 51.0532L128.193 37.5051L147.791 52.3792L171.982 37.5051L190.622 48.0008C196.916 51.6161 200.037 50.0899 204.468 47.8006L208.118 45.8991L211 50.6779L203.121 55.2439Z" fill="url(#paint3_linear_2_132)"/>
<path d="M31.7322 222V220.679C32.4999 220.566 33.1547 220.352 33.6967 220.035C34.2386 219.697 34.7354 219.211 35.187 218.579C35.6386 217.924 36.1015 217.066 36.5757 216.005L44.4338 197.782H45.687L54.7983 217.698C55.2951 218.76 55.837 219.516 56.4241 219.968C57.0338 220.397 57.8693 220.634 58.9306 220.679V222C58.2306 221.955 57.3499 221.932 56.2886 221.932C55.2273 221.91 53.9967 221.898 52.5967 221.898C51.0612 221.898 49.7402 221.91 48.6338 221.932C47.5273 221.932 46.6806 221.955 46.0935 222V220.679C47.2225 220.656 48.058 220.544 48.5999 220.34C49.1644 220.137 49.4806 219.821 49.5483 219.392C49.616 218.963 49.4806 218.365 49.1418 217.597L42.7402 203.439L43.5193 203.032L38.5402 214.684C37.9757 216.016 37.6935 217.123 37.6935 218.003C37.6935 218.861 37.9983 219.516 38.608 219.968C39.2177 220.397 40.1435 220.634 41.3854 220.679V222C40.5951 221.977 39.8838 221.966 39.2515 221.966C38.6193 221.944 38.0209 221.932 37.4564 221.932C36.9144 221.91 36.3499 221.898 35.7628 221.898C35.0402 221.898 34.3515 221.91 33.6967 221.932C33.0418 221.932 32.387 221.955 31.7322 222ZM37.9306 214.311L38.5064 213.024H49.0064L49.5822 214.311H37.9306ZM82.5862 222V220.679C83.3539 220.656 83.8733 220.476 84.1443 220.137C84.4378 219.776 84.5846 219.144 84.5846 218.24V209.773C84.5846 208.598 84.3588 207.706 83.9072 207.097C83.4781 206.487 82.8346 206.182 81.9765 206.182C81.2314 206.182 80.5201 206.419 79.8427 206.894C79.1878 207.368 78.612 208.124 78.1152 209.163L77.912 207.944C78.5443 206.589 79.391 205.595 80.4523 204.963C81.5136 204.331 82.6765 204.015 83.941 204.015C85.6572 204.015 86.9668 204.556 87.8701 205.64C88.7959 206.702 89.2588 208.237 89.2588 210.247V218.24C89.2588 219.144 89.4959 219.776 89.9701 220.137C90.4443 220.476 91.2797 220.656 92.4765 220.679V222C92.1378 221.977 91.6636 221.966 91.0539 221.966C90.4443 221.944 89.7894 221.921 89.0894 221.898C88.3894 221.876 87.7007 221.865 87.0233 221.865C86.1652 221.865 85.3185 221.887 84.483 221.932C83.6475 221.955 83.0152 221.977 82.5862 222ZM59.9265 222V220.679C61.1459 220.656 61.9814 220.476 62.433 220.137C62.9072 219.776 63.1443 219.144 63.1443 218.24V208.79C63.1443 207.729 62.8959 206.984 62.3991 206.555C61.9249 206.103 61.1007 205.855 59.9265 205.81V204.489C60.4233 204.511 60.9088 204.534 61.383 204.556C61.8572 204.579 62.3314 204.59 62.8056 204.59C63.7765 204.59 64.6685 204.556 65.4814 204.489C66.3168 204.398 67.0959 204.274 67.8185 204.116V218.24C67.8185 219.144 67.9539 219.776 68.2249 220.137C68.5185 220.476 69.0378 220.656 69.783 220.679V222C69.3314 221.977 68.7104 221.955 67.9201 221.932C67.1523 221.887 66.3507 221.865 65.5152 221.865C64.5217 221.865 63.4943 221.887 62.433 221.932C61.3943 221.955 60.5588 221.977 59.9265 222ZM71.883 222V220.679C72.6281 220.656 73.1362 220.476 73.4072 220.137C73.7007 219.776 73.8475 219.144 73.8475 218.24V209.773C73.8475 208.598 73.6217 207.706 73.1701 207.097C72.741 206.487 72.0975 206.182 71.2394 206.182C70.5168 206.182 69.8507 206.397 69.241 206.826C68.6314 207.232 68.1007 207.853 67.6491 208.689V207.198C68.2136 206.182 68.9701 205.403 69.9185 204.861C70.8894 204.297 71.9959 204.015 73.2378 204.015C74.9539 204.015 76.2636 204.545 77.1668 205.606C78.0701 206.645 78.5217 208.158 78.5217 210.145V218.24C78.5217 219.144 78.6685 219.776 78.962 220.137C79.2556 220.476 79.7862 220.656 80.5539 220.679V222C80.1475 221.977 79.5378 221.955 78.7249 221.932C77.912 221.887 77.0991 221.865 76.2862 221.865C75.4507 221.865 74.6152 221.887 73.7797 221.932C72.9443 221.955 72.312 221.977 71.883 222ZM102.721 222.474C101.028 222.474 99.5488 222.113 98.2843 221.39C97.0423 220.645 96.0827 219.584 95.4052 218.206C94.7278 216.829 94.3891 215.192 94.3891 213.295C94.3891 211.308 94.7504 209.626 95.473 208.248C96.1956 206.871 97.2117 205.821 98.5214 205.098C99.831 204.376 101.367 204.015 103.128 204.015C104.708 204.015 106.052 204.308 107.158 204.895C108.265 205.46 109.1 206.352 109.665 207.571C110.229 208.79 110.489 210.371 110.444 212.313H97.7423L97.7085 211.026H106.21C106.233 209.919 106.131 208.948 105.905 208.113C105.702 207.255 105.363 206.577 104.889 206.081C104.415 205.584 103.794 205.335 103.026 205.335C102.055 205.335 101.22 205.81 100.52 206.758C99.8423 207.706 99.4359 209.208 99.3004 211.263L99.3681 211.398C99.3456 211.602 99.3343 211.827 99.3343 212.076C99.3343 212.324 99.3343 212.606 99.3343 212.923C99.3343 215.158 99.752 216.908 100.588 218.173C101.446 219.437 102.688 220.069 104.313 220.069C105.42 220.069 106.379 219.798 107.192 219.256C108.028 218.692 108.728 217.834 109.292 216.682L110.512 217.36C109.857 219.008 108.863 220.273 107.531 221.153C106.199 222.034 104.596 222.474 102.721 222.474ZM112.735 222V220.679C113.954 220.656 114.79 220.476 115.241 220.137C115.716 219.776 115.953 219.144 115.953 218.24V208.79C115.953 207.729 115.704 206.984 115.208 206.555C114.733 206.103 113.909 205.855 112.735 205.81V204.489C113.367 204.511 113.898 204.534 114.327 204.556C114.779 204.579 115.264 204.59 115.783 204.59C117.635 204.59 119.249 204.432 120.627 204.116V217.969C120.627 218.963 120.932 219.663 121.541 220.069C122.174 220.453 123.269 220.656 124.827 220.679V222C124.398 221.977 123.822 221.966 123.099 221.966C122.399 221.944 121.632 221.921 120.796 221.898C119.983 221.876 119.182 221.865 118.391 221.865C117.24 221.865 116.133 221.887 115.072 221.932C114.033 221.955 113.254 221.977 112.735 222ZM126.317 210.789C125.753 210.789 125.301 210.631 124.962 210.315C124.624 209.998 124.454 209.592 124.454 209.095C124.454 208.756 124.511 208.463 124.624 208.215C124.737 207.944 124.849 207.695 124.962 207.469C125.075 207.221 125.132 206.984 125.132 206.758C125.132 206.261 124.816 206.013 124.183 206.013C123.709 206.013 123.224 206.126 122.727 206.352C122.253 206.577 121.812 206.894 121.406 207.3C121.022 207.684 120.729 208.135 120.525 208.655L120.458 207.232C120.999 206.216 121.733 205.426 122.659 204.861C123.585 204.297 124.556 204.015 125.572 204.015C126.633 204.015 127.469 204.331 128.079 204.963C128.711 205.573 129.027 206.419 129.027 207.503C129.027 208.497 128.779 209.298 128.282 209.908C127.785 210.495 127.13 210.789 126.317 210.789ZM130.403 222V220.679C131.6 220.656 132.435 220.476 132.909 220.137C133.383 219.798 133.621 219.166 133.621 218.24V208.79C133.621 207.774 133.383 207.04 132.909 206.589C132.458 206.115 131.622 205.855 130.403 205.81V204.489C130.854 204.511 131.317 204.534 131.792 204.556C132.266 204.579 132.74 204.59 133.214 204.59C134.185 204.59 135.088 204.556 135.924 204.489C136.782 204.398 137.572 204.274 138.295 204.116V218.24C138.295 219.166 138.532 219.798 139.006 220.137C139.48 220.476 140.316 220.656 141.513 220.679V222C141.174 221.977 140.7 221.966 140.09 221.966C139.503 221.944 138.848 221.921 138.125 221.898C137.425 221.876 136.725 221.865 136.025 221.865C134.964 221.865 133.892 221.887 132.808 221.932C131.746 221.955 130.945 221.977 130.403 222ZM135.822 201C135.077 201 134.411 200.763 133.824 200.289C133.259 199.815 132.977 199.171 132.977 198.358C132.977 197.523 133.259 196.868 133.824 196.394C134.411 195.919 135.077 195.682 135.822 195.682C136.567 195.682 137.222 195.919 137.787 196.394C138.374 196.868 138.667 197.511 138.667 198.324C138.667 199.16 138.374 199.815 137.787 200.289C137.222 200.763 136.567 201 135.822 201ZM151.572 229.824V228.503C153.107 228.481 154.191 228.266 154.823 227.86C155.456 227.453 155.772 226.765 155.772 225.794V205.708C156.359 205.708 156.946 205.629 157.533 205.471C158.12 205.313 158.673 205.098 159.193 204.827C159.735 204.556 160.186 204.252 160.548 203.913L161.496 204.997C161.248 205.29 161.044 205.595 160.886 205.911C160.728 206.205 160.615 206.555 160.548 206.961C160.503 207.345 160.48 207.819 160.48 208.384V226.065C160.48 226.968 160.706 227.589 161.157 227.927C161.632 228.289 162.467 228.481 163.664 228.503V229.824C163.144 229.802 162.377 229.768 161.361 229.723C160.367 229.7 159.283 229.689 158.109 229.689C157.319 229.689 156.494 229.7 155.636 229.723C154.801 229.745 154.022 229.756 153.299 229.756C152.599 229.779 152.023 229.802 151.572 229.824ZM150.793 222.474C149.303 222.474 148.015 222.102 146.932 221.356C145.87 220.611 145.046 219.561 144.459 218.206C143.872 216.852 143.578 215.237 143.578 213.363C143.578 211.376 143.894 209.694 144.527 208.316C145.182 206.916 146.107 205.855 147.304 205.132C148.523 204.387 149.957 204.015 151.606 204.015C152.396 204.015 153.107 204.116 153.74 204.319C154.394 204.5 154.948 204.748 155.399 205.065C155.851 205.381 156.201 205.708 156.449 206.047L156.144 207.402C155.874 206.927 155.456 206.532 154.891 206.216C154.349 205.877 153.706 205.708 152.961 205.708C151.515 205.708 150.409 206.329 149.641 207.571C148.896 208.813 148.523 210.687 148.523 213.194C148.523 215.542 148.851 217.337 149.506 218.579C150.183 219.821 151.177 220.442 152.486 220.442C153.299 220.442 154.022 220.171 154.654 219.629C155.286 219.087 155.749 218.319 156.043 217.326L156.212 218.444C155.851 219.753 155.207 220.758 154.282 221.458C153.356 222.135 152.193 222.474 150.793 222.474ZM172.63 222.474C170.869 222.474 169.514 221.944 168.566 220.882C167.617 219.798 167.143 218.252 167.143 216.242V208.79C167.143 207.729 166.895 206.973 166.398 206.521C165.924 206.069 165.099 205.832 163.925 205.81V204.489C164.399 204.511 164.874 204.534 165.348 204.556C165.822 204.579 166.319 204.59 166.838 204.59C167.787 204.59 168.667 204.556 169.48 204.489C170.293 204.398 171.072 204.274 171.817 204.116V216.716C171.817 217.89 172.054 218.782 172.528 219.392C173.003 220.002 173.703 220.306 174.628 220.306C175.351 220.306 176.017 220.103 176.627 219.697C177.237 219.268 177.767 218.647 178.219 217.834L178.185 219.324C177.643 220.318 176.887 221.097 175.916 221.661C174.967 222.203 173.872 222.474 172.63 222.474ZM178.049 222.373V208.756C178.049 207.695 177.846 206.95 177.44 206.521C177.033 206.069 176.333 205.832 175.34 205.81V204.489C175.769 204.511 176.198 204.534 176.627 204.556C177.056 204.579 177.496 204.59 177.948 204.59C178.874 204.59 179.732 204.556 180.522 204.489C181.312 204.398 182.046 204.274 182.724 204.116V217.698C182.724 218.76 182.961 219.516 183.435 219.968C183.932 220.419 184.767 220.656 185.941 220.679V222C185.467 221.955 184.993 221.932 184.519 221.932C184.045 221.91 183.559 221.898 183.062 221.898C182.114 221.898 181.222 221.932 180.387 222C179.551 222.09 178.772 222.215 178.049 222.373ZM196.311 222.474C194.617 222.474 193.138 222.113 191.874 221.39C190.632 220.645 189.672 219.584 188.995 218.206C188.317 216.829 187.979 215.192 187.979 213.295C187.979 211.308 188.34 209.626 189.062 208.248C189.785 206.871 190.801 205.821 192.111 205.098C193.42 204.376 194.956 204.015 196.717 204.015C198.298 204.015 199.641 204.308 200.748 204.895C201.854 205.46 202.69 206.352 203.254 207.571C203.819 208.79 204.079 210.371 204.033 212.313H191.332L191.298 211.026H199.8C199.822 209.919 199.72 208.948 199.495 208.113C199.291 207.255 198.953 206.577 198.479 206.081C198.004 205.584 197.383 205.335 196.616 205.335C195.645 205.335 194.809 205.81 194.109 206.758C193.432 207.706 193.025 209.208 192.89 211.263L192.958 211.398C192.935 211.602 192.924 211.827 192.924 212.076C192.924 212.324 192.924 212.606 192.924 212.923C192.924 215.158 193.341 216.908 194.177 218.173C195.035 219.437 196.277 220.069 197.903 220.069C199.009 220.069 199.969 219.798 200.782 219.256C201.617 218.692 202.317 217.834 202.882 216.682L204.101 217.36C203.446 219.008 202.453 220.273 201.12 221.153C199.788 222.034 198.185 222.474 196.311 222.474ZM215.036 222.474C214.065 222.474 213.253 222.373 212.598 222.169C211.943 221.966 211.401 221.763 210.972 221.56C210.543 221.356 210.159 221.255 209.82 221.255C209.278 221.255 208.883 221.605 208.635 222.305H207.314C207.382 221.695 207.427 221.074 207.449 220.442C207.472 219.787 207.483 219.065 207.483 218.274C207.483 217.461 207.483 216.535 207.483 215.497H208.77C209.154 217.348 209.832 218.748 210.803 219.697C211.796 220.645 213.061 221.119 214.596 221.119C215.612 221.119 216.403 220.905 216.967 220.476C217.532 220.024 217.814 219.403 217.814 218.613C217.814 217.845 217.498 217.213 216.865 216.716C216.256 216.219 215.161 215.734 213.58 215.26C211.548 214.65 210.057 213.86 209.109 212.889C208.161 211.895 207.686 210.676 207.686 209.231C207.686 207.65 208.206 206.385 209.244 205.437C210.306 204.489 211.717 204.015 213.478 204.015C214.382 204.015 215.149 204.116 215.782 204.319C216.414 204.5 216.944 204.703 217.373 204.929C217.825 205.132 218.209 205.234 218.525 205.234C218.751 205.234 218.943 205.155 219.101 204.997C219.259 204.816 219.394 204.556 219.507 204.218H220.828C220.783 204.692 220.749 205.2 220.727 205.742C220.704 206.261 220.682 206.871 220.659 207.571C220.659 208.271 220.67 209.14 220.693 210.179H219.372C219.033 208.644 218.39 207.458 217.441 206.623C216.515 205.787 215.409 205.369 214.122 205.369C213.219 205.369 212.507 205.573 211.988 205.979C211.491 206.385 211.243 206.973 211.243 207.74C211.243 208.531 211.582 209.185 212.259 209.705C212.936 210.224 214.111 210.732 215.782 211.229C217.746 211.771 219.169 212.494 220.049 213.397C220.953 214.3 221.404 215.485 221.404 216.953C221.404 218.692 220.84 220.047 219.711 221.018C218.582 221.989 217.023 222.474 215.036 222.474Z" fill="url(#paint4_linear_2_132)"/>
</g>
<defs>
<linearGradient id="paint0_linear_2_132" x1="-3.5" y1="-2.86195e-06" x2="256" y2="256" gradientUnits="userSpaceOnUse">
<stop stop-color="white"/>
<stop offset="1" stop-color="#999999"/>
</linearGradient>
<linearGradient id="paint1_linear_2_132" x1="0" y1="0" x2="256" y2="256" gradientUnits="userSpaceOnUse">
<stop stop-color="white" stop-opacity="0.15"/>
<stop offset="1" stop-opacity="0"/>
</linearGradient>
<linearGradient id="paint2_linear_2_132" x1="71.3398" y1="147.041" x2="71.3398" y2="172.811" gradientUnits="userSpaceOnUse">
<stop stop-color="white"/>
<stop offset="1" stop-color="#EAEAEA"/>
</linearGradient>
<linearGradient id="paint3_linear_2_132" x1="129.361" y1="31" x2="129.361" y2="172.285" gradientUnits="userSpaceOnUse">
<stop stop-color="white"/>
<stop offset="1" stop-color="#EAEAEA"/>
</linearGradient>
<linearGradient id="paint4_linear_2_132" x1="91" y1="88.5" x2="212" y2="225.5" gradientUnits="userSpaceOnUse">
<stop stop-color="white"/>
<stop offset="1" stop-color="#EAEAEA"/>
</linearGradient>
<clipPath id="clip0_2_132">
<rect width="256" height="256" fill="white"/>
</clipPath>
</defs>
</svg>
