<svg width="256" height="256" viewBox="0 0 256 256" fill="none" xmlns="http://www.w3.org/2000/svg">
<g clip-path="url(#clip0_2_538)">
<rect width="256" height="256" fill="url(#paint0_linear_2_538)"/>
<rect width="256" height="256" fill="#E88F00"/>
<rect width="256" height="256" fill="url(#paint1_linear_2_538)"/>
<path fill-rule="evenodd" clip-rule="evenodd" d="M171.894 65.9149L156.11 56.5826L158.489 55.0063L173.669 64.0009C173.025 64.6114 172.431 65.2724 171.894 65.9774" fill="white" fill-opacity="0.5"/>
<path fill-rule="evenodd" clip-rule="evenodd" d="M175.657 174.987L169.175 170.446C164.921 167.432 162.693 162.328 162.693 156.686V93.5363C162.693 84.7795 164.556 78.7873 167.514 74.634C165.76 79.4801 164.941 84.6109 165.097 89.7583L165.286 154.384C165.286 161.377 167.325 165.918 172.133 169.321L178.061 173.486L175.657 174.987Z" fill="white" fill-opacity="0.5"/>
<path fill-rule="evenodd" clip-rule="evenodd" d="M123.184 174.412C122.858 174.621 122.522 174.813 122.177 174.987H120.553V69.48C120.553 64.376 120.15 64.376 116.89 62.0992L112.208 58.6965L115.267 57.1829C117.709 59.0718 121.371 61.7239 121.371 61.9116C122.794 63.2376 123.184 63.9882 123.184 67.0155V174.412Z" fill="white" fill-opacity="0.5"/>
<path fill-rule="evenodd" clip-rule="evenodd" d="M45.5878 44.0977C44.7755 45.9351 44.4103 47.937 44.5218 49.9409C44.6334 51.9448 45.2185 53.8945 46.2297 55.6317C48.3158 58.6684 51.5139 60.774 55.1409 61.4987C43.1586 62.412 37.8848 53.8178 45.5878 44.1102" fill="white" fill-opacity="0.5"/>
<path fill-rule="evenodd" clip-rule="evenodd" d="M73.8068 135.719C74.5913 132.442 74.9592 129.08 74.9019 125.711V71.1063C74.9019 64.5386 74.5872 63.788 72.6992 61.7239H73.0265C75.6822 61.161 77.0919 61.7239 77.0919 67.3533V122.196C77.0919 128.589 76.1605 132.717 73.8068 135.732" fill="white" fill-opacity="0.5"/>
<path fill-rule="evenodd" clip-rule="evenodd" d="M78.5269 175C76.9536 169.834 72.2336 165.468 63.9265 164.279C65.106 164.113 66.2976 164.046 67.4885 164.079C77.7339 164.267 80.6918 170.622 81.3337 172.611L81.5351 173.199L78.5269 175Z" fill="white" fill-opacity="0.5"/>
<path fill-rule="evenodd" clip-rule="evenodd" d="M84.606 172.235C82.6803 166.881 77.0541 161.352 67.1233 160.976C57.696 160.776 44.2536 164.417 33.1397 172.811L31 170.134C39.068 161.377 57.8974 147.241 77.6834 147.041C88.0547 147.041 95.3046 150.481 100.541 156.01L109.162 151.244L111.68 156.248L84.606 172.235Z" fill="url(#paint2_linear_2_538)"/>
<path fill-rule="evenodd" clip-rule="evenodd" d="M203.121 55.2439C195.569 59.6349 193.052 65.552 193.052 74.7217V147.816C193.052 152.407 193.643 154.496 196.135 155.835L198.653 157.174L205.563 153.158L207.866 157.749L183.851 172.06L175.594 166.518C171.931 164.016 170.396 160.989 170.396 155.072V89.7959C170.396 77.5864 174.247 71.0313 179.622 67.0907L182.706 64.7889L160.05 51.6161L149.905 57.7459V152.82C149.905 160.826 148.747 161.977 141.636 165.593C141.636 165.593 136.072 168.27 128.407 172.285H126.859V66.8905C126.859 61.749 126.28 60.6357 123.398 58.3088L115.342 51.8163L105.538 57.3456V111.938C105.538 121.471 104.002 128.339 96.3117 133.105L77.1172 145.139L75.1789 141.899C81.1449 137.308 82.4791 130.815 82.4791 123.134V67.466C82.4791 59.2596 81.3463 56.0195 72.6867 57.5457C69.4268 58.1087 64.43 58.8718 61.3589 59.2596C48.6717 60.9734 43.2972 52.0039 51.9442 40.7451C51.9442 40.7451 54.0587 37.8804 59.4331 31L63.6622 33.8772L60.5785 38.2682C56.5508 43.9977 59.8233 47.025 66.3557 44.7482C69.4268 43.6099 75.3803 41.3206 79.6093 39.5942C97.8472 32.5387 104.581 44.1853 105.538 51.0532L128.193 37.5051L147.791 52.3792L171.982 37.5051L190.622 48.0008C196.916 51.6161 200.037 50.0899 204.468 47.8006L208.118 45.8991L211 50.6779L203.121 55.2439Z" fill="url(#paint3_linear_2_538)"/>
<path d="M58.5695 222.237L50.1356 200.458H49.6275V216.682C49.6275 217.698 49.7178 218.489 49.8985 219.053C50.0791 219.595 50.4517 219.99 51.0162 220.239C51.6033 220.465 52.484 220.611 53.6582 220.679V222C53.2066 221.955 52.563 221.932 51.7275 221.932C50.892 221.91 50.0001 221.898 49.0517 221.898C48.1259 221.898 47.2791 221.91 46.5114 221.932C45.7437 221.932 45.134 221.955 44.6824 222V220.679C45.6759 220.611 46.4324 220.465 46.9517 220.239C47.4711 219.99 47.8211 219.606 48.0017 219.087C48.1824 218.545 48.2727 217.8 48.2727 216.852V202.253C48.2727 201.418 48.1824 200.808 48.0017 200.424C47.8437 200.04 47.5049 199.769 46.9856 199.611C46.4888 199.453 45.7211 199.363 44.6824 199.34V198.019C45.1791 198.042 45.834 198.065 46.6469 198.087C47.4824 198.11 48.3969 198.121 49.3904 198.121C50.4291 198.121 51.4001 198.11 52.3033 198.087C53.2066 198.065 53.9969 198.042 54.6743 198.019L61.5162 215.937L60.4324 216.513L66.7324 198.019C67.5904 198.065 68.3695 198.098 69.0695 198.121C69.7695 198.121 70.4807 198.121 71.2033 198.121C72.3098 198.121 73.3598 198.11 74.3533 198.087C75.3469 198.065 76.1372 198.042 76.7243 198.019V199.34C75.6856 199.363 74.9066 199.453 74.3872 199.611C73.8678 199.747 73.5291 200.018 73.3711 200.424C73.213 200.808 73.134 201.418 73.134 202.253V217.766C73.134 218.579 73.213 219.189 73.3711 219.595C73.5517 219.979 73.8904 220.25 74.3872 220.408C74.9066 220.544 75.6856 220.634 76.7243 220.679V222C76.0695 221.955 75.2001 221.932 74.1162 221.932C73.0549 221.91 71.892 221.898 70.6275 221.898C69.2953 221.898 68.0985 221.91 67.0372 221.932C65.9985 221.932 65.1743 221.955 64.5646 222V220.679C65.5582 220.634 66.292 220.544 66.7662 220.408C67.263 220.25 67.5904 219.968 67.7485 219.561C67.9066 219.155 67.9856 218.556 67.9856 217.766V199.916H67.4775L59.7888 222.237H58.5695ZM87.4275 222.474C85.7339 222.474 84.2549 222.113 82.9904 221.39C81.7484 220.645 80.7888 219.584 80.1113 218.206C79.4339 216.829 79.0952 215.192 79.0952 213.295C79.0952 211.308 79.4565 209.626 80.1791 208.248C80.9017 206.871 81.9178 205.821 83.2275 205.098C84.5372 204.376 86.0726 204.015 87.8339 204.015C89.4146 204.015 90.7581 204.308 91.8646 204.895C92.971 205.46 93.8065 206.352 94.371 207.571C94.9355 208.79 95.1952 210.371 95.1501 212.313H82.4484L82.4146 211.026H90.9162C90.9388 209.919 90.8371 208.948 90.6113 208.113C90.4081 207.255 90.0694 206.577 89.5952 206.081C89.121 205.584 88.5001 205.335 87.7323 205.335C86.7613 205.335 85.9259 205.81 85.2259 206.758C84.5484 207.706 84.142 209.208 84.0065 211.263L84.0742 211.398C84.0517 211.602 84.0404 211.827 84.0404 212.076C84.0404 212.324 84.0404 212.606 84.0404 212.923C84.0404 215.158 84.4581 216.908 85.2936 218.173C86.1517 219.437 87.3936 220.069 89.0194 220.069C90.1259 220.069 91.0855 219.798 91.8984 219.256C92.7339 218.692 93.4339 217.834 93.9984 216.682L95.2178 217.36C94.563 219.008 93.5694 220.273 92.2371 221.153C90.9049 222.034 89.3017 222.474 87.4275 222.474ZM86.4113 201.779L85.7678 201.203C86.4678 200.119 86.9646 199.194 87.2581 198.426C87.5742 197.635 87.8339 196.958 88.0371 196.394C88.263 195.829 88.5565 195.332 88.9178 194.903C89.392 194.316 89.9339 193.989 90.5436 193.921C91.1759 193.853 91.7291 194.034 92.2033 194.463C92.6549 194.847 92.892 195.344 92.9146 195.953C92.9597 196.54 92.7452 197.116 92.271 197.681C92.0001 198.019 91.6726 198.313 91.2888 198.561C90.9275 198.787 90.5097 199.035 90.0355 199.306C89.5613 199.555 89.0194 199.871 88.4097 200.255C87.8226 200.639 87.1565 201.147 86.4113 201.779ZM110.679 222.373V200.153C110.679 199.092 110.442 198.347 109.968 197.918C109.494 197.466 108.67 197.218 107.495 197.173V195.852C107.992 195.874 108.466 195.897 108.918 195.919C109.392 195.942 109.889 195.953 110.408 195.953C111.334 195.953 112.215 195.919 113.05 195.852C113.886 195.761 114.665 195.637 115.387 195.479V217.698C115.387 218.737 115.624 219.494 116.099 219.968C116.573 220.419 117.397 220.656 118.571 220.679V222C118.097 221.955 117.623 221.932 117.149 221.932C116.674 221.91 116.178 221.898 115.658 221.898C114.733 221.898 113.852 221.932 113.016 222C112.181 222.09 111.402 222.215 110.679 222.373ZM105.633 222.474C104.165 222.474 102.9 222.113 101.839 221.39C100.778 220.645 99.9535 219.595 99.3664 218.24C98.7793 216.885 98.4858 215.271 98.4858 213.397C98.4858 211.432 98.8019 209.75 99.4342 208.35C100.089 206.95 101.015 205.877 102.212 205.132C103.408 204.387 104.831 204.015 106.479 204.015C107.654 204.015 108.658 204.229 109.494 204.658C110.329 205.087 110.916 205.629 111.255 206.284L111.052 207.469C110.781 206.95 110.363 206.532 109.799 206.216C109.234 205.877 108.568 205.708 107.8 205.708C106.378 205.708 105.294 206.34 104.549 207.605C103.804 208.869 103.431 210.744 103.431 213.227C103.431 215.576 103.758 217.371 104.413 218.613C105.091 219.832 106.073 220.442 107.36 220.442C108.173 220.442 108.884 220.182 109.494 219.663C110.126 219.144 110.6 218.41 110.916 217.461L111.086 218.681C110.702 219.877 110.036 220.815 109.087 221.492C108.162 222.147 107.01 222.474 105.633 222.474ZM128.998 222.474C127.304 222.474 125.825 222.113 124.561 221.39C123.319 220.645 122.359 219.584 121.681 218.206C121.004 216.829 120.665 215.192 120.665 213.295C120.665 211.308 121.027 209.626 121.749 208.248C122.472 206.871 123.488 205.821 124.798 205.098C126.107 204.376 127.643 204.015 129.404 204.015C130.985 204.015 132.328 204.308 133.435 204.895C134.541 205.46 135.377 206.352 135.941 207.571C136.506 208.79 136.765 210.371 136.72 212.313H124.019L123.985 211.026H132.486C132.509 209.919 132.407 208.948 132.181 208.113C131.978 207.255 131.64 206.577 131.165 206.081C130.691 205.584 130.07 205.335 129.302 205.335C128.331 205.335 127.496 205.81 126.796 206.758C126.119 207.706 125.712 209.208 125.577 211.263L125.644 211.398C125.622 211.602 125.611 211.827 125.611 212.076C125.611 212.324 125.611 212.606 125.611 212.923C125.611 215.158 126.028 216.908 126.864 218.173C127.722 219.437 128.964 220.069 130.59 220.069C131.696 220.069 132.656 219.798 133.469 219.256C134.304 218.692 135.004 217.834 135.569 216.682L136.788 217.36C136.133 219.008 135.14 220.273 133.807 221.153C132.475 222.034 130.872 222.474 128.998 222.474ZM148.137 222.474C146.466 222.474 145.021 222.113 143.801 221.39C142.582 220.645 141.634 219.595 140.956 218.24C140.301 216.863 139.974 215.237 139.974 213.363C139.974 211.421 140.324 209.75 141.024 208.35C141.724 206.95 142.717 205.877 144.005 205.132C145.314 204.387 146.861 204.015 148.645 204.015C149.932 204.015 151.072 204.218 152.066 204.624C153.059 205.008 153.838 205.55 154.403 206.25C154.967 206.927 155.25 207.729 155.25 208.655C155.25 209.513 154.979 210.224 154.437 210.789C153.917 211.353 153.217 211.635 152.337 211.635C151.682 211.635 151.151 211.466 150.745 211.127C150.338 210.789 150.135 210.348 150.135 209.806C150.135 209.31 150.271 208.881 150.542 208.519C150.813 208.158 151.072 207.831 151.321 207.537C151.592 207.221 151.727 206.882 151.727 206.521C151.727 206.182 151.535 205.923 151.151 205.742C150.79 205.539 150.316 205.437 149.729 205.437C148.193 205.437 147.008 206.092 146.172 207.402C145.337 208.689 144.919 210.495 144.919 212.821C144.919 215.147 145.326 216.942 146.138 218.206C146.974 219.448 148.182 220.069 149.763 220.069C150.801 220.069 151.705 219.787 152.472 219.223C153.24 218.658 153.884 217.811 154.403 216.682L155.588 217.36C154.979 219.008 154.03 220.273 152.743 221.153C151.456 222.034 149.921 222.474 148.137 222.474ZM157.335 222V220.679C158.532 220.656 159.368 220.476 159.842 220.137C160.316 219.798 160.553 219.166 160.553 218.24V208.79C160.553 207.774 160.316 207.04 159.842 206.589C159.39 206.115 158.555 205.855 157.335 205.81V204.489C157.787 204.511 158.25 204.534 158.724 204.556C159.198 204.579 159.672 204.59 160.147 204.59C161.118 204.59 162.021 204.556 162.856 204.489C163.714 204.398 164.505 204.274 165.227 204.116V218.24C165.227 219.166 165.464 219.798 165.939 220.137C166.413 220.476 167.248 220.656 168.445 220.679V222C168.106 221.977 167.632 221.966 167.022 221.966C166.435 221.944 165.781 221.921 165.058 221.898C164.358 221.876 163.658 221.865 162.958 221.865C161.897 221.865 160.824 221.887 159.74 221.932C158.679 221.955 157.877 221.977 157.335 222ZM162.755 201C162.01 201 161.343 200.763 160.756 200.289C160.192 199.815 159.91 199.171 159.91 198.358C159.91 197.523 160.192 196.868 160.756 196.394C161.343 195.919 162.01 195.682 162.755 195.682C163.5 195.682 164.155 195.919 164.719 196.394C165.306 196.868 165.6 197.511 165.6 198.324C165.6 199.16 165.306 199.815 164.719 200.289C164.155 200.763 163.5 201 162.755 201ZM181.92 222V220.679C182.756 220.656 183.32 220.476 183.614 220.137C183.93 219.776 184.088 219.144 184.088 218.24V209.84C184.088 208.621 183.839 207.706 183.343 207.097C182.868 206.487 182.157 206.182 181.209 206.182C180.464 206.182 179.775 206.397 179.143 206.826C178.51 207.255 177.968 207.876 177.517 208.689V207.198C178.081 206.182 178.849 205.403 179.82 204.861C180.814 204.297 181.943 204.015 183.207 204.015C185.014 204.015 186.391 204.556 187.339 205.64C188.288 206.702 188.762 208.237 188.762 210.247V218.24C188.762 219.144 188.999 219.776 189.473 220.137C189.947 220.476 190.783 220.656 191.98 220.679V222C191.641 221.977 191.167 221.966 190.557 221.966C189.97 221.944 189.315 221.921 188.593 221.898C187.893 221.876 187.204 221.865 186.527 221.865C185.646 221.865 184.765 221.887 183.885 221.932C183.004 221.955 182.349 221.977 181.92 222ZM169.794 222V220.679C171.014 220.656 171.849 220.476 172.301 220.137C172.775 219.776 173.012 219.144 173.012 218.24V208.79C173.012 207.729 172.764 206.984 172.267 206.555C171.793 206.103 170.968 205.855 169.794 205.81V204.489C170.268 204.511 170.743 204.534 171.217 204.556C171.691 204.579 172.177 204.59 172.673 204.59C173.644 204.59 174.547 204.556 175.383 204.489C176.218 204.398 176.986 204.274 177.686 204.116V218.24C177.686 219.144 177.844 219.776 178.16 220.137C178.477 220.476 179.041 220.656 179.854 220.679V222C179.38 221.977 178.736 221.955 177.923 221.932C177.11 221.887 176.264 221.865 175.383 221.865C174.389 221.865 173.362 221.887 172.301 221.932C171.262 221.955 170.427 221.977 169.794 222ZM202.253 222.474C200.56 222.474 199.081 222.113 197.816 221.39C196.574 220.645 195.614 219.584 194.937 218.206C194.26 216.829 193.921 215.192 193.921 213.295C193.921 211.308 194.282 209.626 195.005 208.248C195.727 206.871 196.743 205.821 198.053 205.098C199.363 204.376 200.898 204.015 202.66 204.015C204.24 204.015 205.584 204.308 206.69 204.895C207.797 205.46 208.632 206.352 209.197 207.571C209.761 208.79 210.021 210.371 209.976 212.313H197.274L197.24 211.026H205.742C205.764 209.919 205.663 208.948 205.437 208.113C205.234 207.255 204.895 206.577 204.421 206.081C203.947 205.584 203.326 205.335 202.558 205.335C201.587 205.335 200.752 205.81 200.052 206.758C199.374 207.706 198.968 209.208 198.832 211.263L198.9 211.398C198.877 211.602 198.866 211.827 198.866 212.076C198.866 212.324 198.866 212.606 198.866 212.923C198.866 215.158 199.284 216.908 200.119 218.173C200.977 219.437 202.219 220.069 203.845 220.069C204.952 220.069 205.911 219.798 206.724 219.256C207.56 218.692 208.26 217.834 208.824 216.682L210.043 217.36C209.389 219.008 208.395 220.273 207.063 221.153C205.731 222.034 204.127 222.474 202.253 222.474Z" fill="url(#paint4_linear_2_538)"/>
</g>
<defs>
<linearGradient id="paint0_linear_2_538" x1="-3.5" y1="-2.86195e-06" x2="256" y2="256" gradientUnits="userSpaceOnUse">
<stop stop-color="white"/>
<stop offset="1" stop-color="#999999"/>
</linearGradient>
<linearGradient id="paint1_linear_2_538" x1="0" y1="0" x2="256" y2="256" gradientUnits="userSpaceOnUse">
<stop stop-color="white" stop-opacity="0.15"/>
<stop offset="1" stop-opacity="0"/>
</linearGradient>
<linearGradient id="paint2_linear_2_538" x1="71.3398" y1="147.041" x2="71.3398" y2="172.811" gradientUnits="userSpaceOnUse">
<stop stop-color="white"/>
<stop offset="1" stop-color="#EAEAEA"/>
</linearGradient>
<linearGradient id="paint3_linear_2_538" x1="129.361" y1="31" x2="129.361" y2="172.285" gradientUnits="userSpaceOnUse">
<stop stop-color="white"/>
<stop offset="1" stop-color="#EAEAEA"/>
</linearGradient>
<linearGradient id="paint4_linear_2_538" x1="91" y1="88.5" x2="212" y2="225.5" gradientUnits="userSpaceOnUse">
<stop stop-color="white"/>
<stop offset="1" stop-color="#EAEAEA"/>
</linearGradient>
<clipPath id="clip0_2_538">
<rect width="256" height="256" fill="white"/>
</clipPath>
</defs>
</svg>
