<svg width="256" height="256" viewBox="0 0 256 256" fill="none" xmlns="http://www.w3.org/2000/svg">
<g clip-path="url(#clip0_26_1421)">
<rect width="256" height="256" fill="url(#paint0_linear_26_1421)"/>
<rect width="256" height="256" fill="url(#paint1_linear_26_1421)"/>
<path d="M40.3551 155.519C40.3551 160.096 37.5777 162.169 31.5888 162.169C25.4698 162.169 22.6924 159.967 22.6924 155.519V100.979C22.6924 96.0993 25.0358 94.0265 30.3303 94.0265C35.2342 94.0265 36.8833 95.1061 37.9683 99.2948C38.2287 100.115 38.6626 100.547 39.0532 100.547C39.4872 100.547 39.7476 100.374 40.7023 99.4675C44.1741 96.1424 50.0327 94.0697 56.0216 94.0697C59.6236 94.0697 61.4463 95.9697 61.4463 99.7698C61.4463 108.493 59.7972 111.688 55.4574 111.688C44.8685 111.688 39.8778 117.388 40.3117 128.832V155.519H40.3551ZM68.0427 81.5899C68.0427 76.883 70.8635 74.6375 76.8523 74.6375C83.0148 74.6375 85.7488 76.883 85.7488 81.5899V91.5219C85.7488 93.5947 86.4432 94.2856 88.5262 94.2856H93.2566C97.9869 94.2856 100.244 96.9197 100.244 102.577C100.244 108.104 97.9869 110.781 93.2566 110.781H88.5262C86.6167 110.781 85.7488 111.602 85.7488 113.545V134.316C85.7488 143.73 88.83 148.307 95.0792 148.307C96.5982 148.307 98.1605 148.134 102.327 147.746C102.761 147.573 103.151 147.573 103.715 147.573C106.797 147.573 108.142 149.084 108.142 152.712C108.142 159.492 102.153 163.248 91.5641 163.248C75.9844 163.248 68.0427 153.144 68.0427 133.323V81.5899ZM146.722 103.872C149.543 95.8402 151.626 93.9401 157.311 93.9401C162.606 93.9401 165.383 96.0129 165.383 99.8993C165.383 100.893 165.209 101.281 164.689 102.965L146.158 152.669C143.337 160.269 141.167 162.212 135.569 162.212C130.014 162.212 127.757 160.312 124.98 152.669L106.493 102.922C105.929 101.54 105.798 100.849 105.798 99.8562C105.798 95.9697 108.619 93.8969 113.87 93.8969C119.599 93.8969 121.508 95.797 124.286 103.829L133.616 130.559C134.05 131.639 134.614 132.2 135.526 132.2C136.35 132.2 137.045 131.639 137.348 130.559L146.722 103.872ZM185.563 142.953C183.914 142.953 183.219 143.643 183.219 145.025C183.219 158.757 192.289 167.221 207.175 167.221C212.469 167.221 216.071 166.401 222.624 163.767C224.881 162.946 225.792 162.687 226.79 162.687C229.134 162.687 230.87 164.76 230.87 167.955C230.87 176.246 219.456 182.637 204.31 182.637C179.531 182.637 165.6 166.833 165.6 138.721C165.6 110.868 178.966 94.1129 201.056 94.1129C219.977 94.1129 232.692 108.277 232.692 129.307C232.692 139.843 229.915 143.039 220.628 143.039H185.563V142.953ZM213.381 128.961C215.03 128.961 215.637 128.27 215.637 126.457C215.637 113.718 210.082 106.809 200.058 106.809C190.163 106.809 183.48 115.1 183.48 127.018C183.48 128.27 184.304 128.918 185.736 128.918C185.736 128.961 213.381 128.961 213.381 128.961Z" fill="url(#paint2_linear_26_1421)"/>
</g>
<defs>
<linearGradient id="paint0_linear_26_1421" x1="-3.5" y1="-2.86195e-06" x2="256" y2="256" gradientUnits="userSpaceOnUse">
<stop stop-color="white"/>
<stop offset="1" stop-color="#E0E0E0"/>
</linearGradient>
<linearGradient id="paint1_linear_26_1421" x1="0" y1="0" x2="256" y2="256" gradientUnits="userSpaceOnUse">
<stop stop-color="white" stop-opacity="0.15"/>
<stop offset="1" stop-opacity="0"/>
</linearGradient>
<linearGradient id="paint2_linear_26_1421" x1="62.8106" y1="198.359" x2="190.319" y2="70.2163" gradientUnits="userSpaceOnUse">
<stop stop-color="#F5A717"/>
<stop offset="1" stop-color="#E6511F"/>
</linearGradient>
<clipPath id="clip0_26_1421">
<rect width="256" height="256" fill="white"/>
</clipPath>
</defs>
</svg>
